<svg width="16" height="16" viewBox="0 0 16 16" fill="none" xmlns="http://www.w3.org/2000/svg">
<circle cx="8" cy="8" r="8" fill="#2F2F33"/>
<path d="M8.25574 2.7109L8.25574 2.71089L8.25529 2.71134C8.00987 2.9547 7.8865 3.25055 7.8865 3.59583C7.8865 3.94153 8.01299 4.23751 8.26414 4.48076C8.51504 4.72377 8.81693 4.84582 9.16692 4.84582C9.52224 4.84582 9.82701 4.72395 10.0781 4.48076C10.3292 4.23751 10.4557 3.94153 10.4557 3.59583C10.4557 3.25023 10.3293 2.95433 10.0783 2.71112C9.83251 2.46748 9.52748 2.34584 9.16692 2.34584C8.81159 2.34584 8.50683 2.46771 8.25574 2.7109ZM9.69337 5.8467L9.71725 5.76648L9.63429 5.77756L6.28311 6.22497L6.24966 6.22944L6.23892 6.26143L6.12974 6.58683L6.10458 6.66181L6.18359 6.65817C6.30064 6.65277 6.40055 6.65009 6.48345 6.65009C6.65934 6.65009 6.79092 6.69386 6.88472 6.77515C6.98159 6.8591 7.02561 6.95074 7.02561 7.05148C7.02561 7.23297 6.97163 7.50866 6.85991 7.88197L5.69258 11.77C5.69256 11.7701 5.69254 11.7701 5.69252 11.7702C5.59663 12.0816 5.5474 12.3423 5.5474 12.5506C5.5474 12.8686 5.65947 13.1352 5.88356 13.3466L5.88462 13.3476C6.11517 13.5537 6.4203 13.6542 6.79421 13.6542C7.77618 13.6542 8.68895 12.9186 9.53687 11.4882L9.56497 11.4408L9.51709 11.4135L9.23153 11.2508L9.18777 11.2259L9.15972 11.2677C8.80768 11.7927 8.50908 12.1503 8.26388 12.3456L8.26386 12.3455L8.26243 12.3468C8.17392 12.4224 8.09074 12.4558 8.01206 12.4558C7.97378 12.4558 7.93378 12.4397 7.89119 12.3988C7.84847 12.3525 7.83106 12.3085 7.83106 12.2659C7.83106 12.2206 7.8418 12.1455 7.86549 12.0375C7.88894 11.9307 7.92427 11.795 7.97166 11.6303C7.97169 11.6302 7.97171 11.6302 7.97173 11.6301L9.69337 5.8467Z" fill="white" stroke="white" stroke-width="0.108333"/>
</svg>
