<svg width="20" height="20" viewBox="0 0 20 20" fill="none" xmlns="http://www.w3.org/2000/svg">
<path d="M20 10C20 15.5228 15.5228 20 10 20C4.47715 20 0 15.5228 0 10C0 4.47715 4.47715 0 10 0C15.5228 0 20 4.47715 20 10Z" fill="white"/>
<path d="M8.21406 2.60272C6.84716 5.12929 7.23126 8.35236 9.36639 10.4875C11.5025 12.6236 14.7276 13.0071 17.2547 11.6379C16.9446 12.9438 16.2802 14.1827 15.2615 15.2015C12.3325 18.1304 7.5838 18.1304 4.65486 15.2015C1.72593 12.2726 1.72593 7.52382 4.65486 4.59489C5.67247 3.57728 6.90975 2.91322 8.21406 2.60272Z" fill="#2F2F33"/>
</svg>
