<svg width="1795" height="1205" viewBox="0 0 1795 1205" fill="none" xmlns="http://www.w3.org/2000/svg">
<g clip-path="url(#clip0_2422_10803)">
<path d="M242 209L779 575" stroke="#2F2F33" stroke-width="3" stroke-linecap="round"/>
<path d="M337 579.192C562.993 598.387 790.713 625.492 1017.94 621.628C1255.55 617.588 1485.12 570.492 1720 541" stroke="#2F2F33" stroke-width="3" stroke-linecap="round"/>
<path d="M1530 223C1521.19 224.101 1516.43 250.987 1514.43 255.985C1497.99 297.084 1475.47 334.367 1448.19 369.189C1427.6 395.484 1405.5 422.489 1376.94 440.437C1374.06 442.248 1364.1 451.9 1363.75 446.242C1362.74 430.125 1326.56 435.848 1317.31 434.631C1276.62 429.286 1220.43 420.028 1207 379.744" stroke="#2F2F33" stroke-width="3" stroke-linecap="round"/>
<path d="M494 888.166C498.993 868.181 687.709 926.399 703.085 929.904C834.882 959.947 972.524 960.411 1107 969" stroke="#2F2F33" stroke-width="3" stroke-linecap="round"/>
<path d="M660 132.832C704.028 116.079 698.808 219.131 698.808 242" stroke="#2F2F33" stroke-width="3" stroke-linecap="round"/>
<path d="M166 765C199.245 803.601 228.029 830.841 271 860" stroke="#2F2F33" stroke-width="3" stroke-linecap="round"/>
<path d="M1511 798C1506.12 801.034 1506.75 806.938 1506.5 812.233C1504.99 844.596 1500.03 873.258 1488.5 903.953C1474.6 940.981 1455.88 972.555 1430 1002" stroke="#2F2F33" stroke-width="3" stroke-linecap="round"/>
<path d="M204 318C193.663 320.638 191.106 391.379 190 399" stroke="#2F2F33" stroke-width="3" stroke-linecap="round"/>
<path d="M470.633 998C466.046 998.764 472.346 1001.18 474.59 1002.48C502.042 1018.5 530.221 1034.51 559.797 1046.28C622.707 1071.3 699.147 1073.56 766.088 1073.98C793.579 1074.15 815.428 1073.59 838.105 1057.89C845.876 1052.51 852.157 1056.6 860 1059.73" stroke="#2F2F33" stroke-width="3" stroke-linecap="round"/>
</g>
<defs>
<clipPath id="clip0_2422_10803">
<rect width="1205" height="1795" fill="white" transform="translate(1795) rotate(90)"/>
</clipPath>
</defs>
</svg>
