<svg width="1795" height="1205" viewBox="0 0 1795 1205" fill="none" xmlns="http://www.w3.org/2000/svg">
<g clip-path="url(#clip0_2422_10805)">
<path d="M292.661 357.855C277.782 488.501 550.049 598.705 650.338 587.347C759.853 574.943 858.033 482.958 944.637 421.476C1066.04 335.289 1169.01 211.974 1256.37 92.6417" stroke="black" stroke-width="3" stroke-linecap="round"/>
<path d="M1040.96 985.276C1060.87 931.353 1088.15 881.706 1119.43 835.04" stroke="black" stroke-width="3" stroke-linecap="round"/>
<path d="M1571.48 580.898C1540.94 566.131 1636.23 329.869 1650.43 285.645" stroke="black" stroke-width="3" stroke-linecap="round"/>
<path d="M1207.28 669.673L1351.24 715.873" stroke="black" stroke-width="3" stroke-linecap="round"/>
<path d="M1387.35 579.776C1362.47 571.79 1336.71 571.341 1332.9 542.132" stroke="black" stroke-width="3" stroke-linecap="round"/>
<path d="M742.836 707.984C741.377 736.603 820.952 731.195 840.032 730.25" stroke="black" stroke-width="3" stroke-linecap="round"/>
<path d="M193.465 977.921C192.697 993.066 271.915 1009.64 286.161 1014.21" stroke="#020401" stroke-width="3" stroke-linecap="round"/>
<path d="M141.389 683.129C196.073 732.602 277.006 775.692 351.485 783.654C414.525 790.392 480.704 728.425 535.553 703.606" stroke="#020401" stroke-width="3" stroke-linecap="round"/>
<g clip-path="url(#clip1_2422_10805)">
<path d="M1073.49 902.793L935.202 810.678" stroke="#2F2F33" stroke-width="3" stroke-miterlimit="10"/>
<path d="M328.883 406.813L141.251 281.832" stroke="#2F2F33" stroke-width="3" stroke-miterlimit="10"/>
<path d="M342.606 1043.22L430.031 911.974" stroke="#2F2F33" stroke-width="3" stroke-miterlimit="10"/>
<path d="M1146.27 505.576L989.302 537.062" stroke="#2F2F33" stroke-width="3" stroke-miterlimit="10"/>
<path d="M274.816 680.384L167.109 701.989" stroke="#2F2F33" stroke-width="3" stroke-miterlimit="10"/>
<path d="M560.522 251.456L534.21 120.045" stroke="#2F2F33" stroke-width="3" stroke-miterlimit="10"/>
<path d="M358.453 849.396L189.168 998.349" stroke="#2F2F33" stroke-width="3" stroke-miterlimit="10"/>
<path d="M1021.48 1051.55L872.607 882.287" stroke="#2F2F33" stroke-width="3" stroke-miterlimit="10"/>
<path d="M391.508 335.16L242.63 165.9" stroke="#2F2F33" stroke-width="3" stroke-miterlimit="10"/>
<path d="M669.886 20.0928L655.422 245.094" stroke="#2F2F33" stroke-width="3" stroke-miterlimit="10"/>
<path d="M1220.6 646.365L995.632 631.973" stroke="#2F2F33" stroke-width="3" stroke-miterlimit="10"/>
<path d="M515.403 953.94L443.186 1167.55" stroke="#2F2F33" stroke-width="3" stroke-miterlimit="10"/>
<path d="M1190.75 797.438L977.189 725.281" stroke="#2F2F33" stroke-width="3" stroke-miterlimit="10"/>
<path d="M370.532 80.141L470.502 282.187" stroke="#2F2F33" stroke-width="3" stroke-miterlimit="10"/>
<path d="M874.137 -84.2713C927.518 -48.7147 1027.27 -9.8125 1033.08 62.7567C1039.07 137.638 1040.89 213.343 1042.21 288.351C1044.15 398.593 1046.24 520.111 1082.22 625.977C1105.12 693.378 1130.84 720.272 1099.43 786.07" stroke="#F8F8F8" stroke-width="3" stroke-linecap="round"/>
<path d="M757.02 471.945C685.53 490.031 604.8 533.501 556.885 591.074C516.329 639.804 531.215 729.236 521.463 788.644" stroke="#020401" stroke-width="3" stroke-linecap="round"/>
</g>
</g>
<defs>
<clipPath id="clip0_2422_10805">
<rect width="1205" height="1795" fill="white" transform="translate(1795) rotate(90)"/>
</clipPath>
<clipPath id="clip1_2422_10805">
<rect width="1141" height="1160" fill="white" transform="translate(1422.97 450.071) rotate(123.667)"/>
</clipPath>
</defs>
</svg>
