<svg width="1795" height="1205" viewBox="0 0 1795 1205" fill="none" xmlns="http://www.w3.org/2000/svg">
<g clip-path="url(#clip0_2422_10806)">
<g clip-path="url(#clip1_2422_10806)">
<path d="M1562.49 748.793L1424.2 656.678" stroke="#2F2F33" stroke-width="3" stroke-miterlimit="10"/>
<path d="M831.606 889.223L919.031 757.974" stroke="#2F2F33" stroke-width="3" stroke-miterlimit="10"/>
<path d="M1635.27 351.576L1478.3 383.062" stroke="#2F2F33" stroke-width="3" stroke-miterlimit="10"/>
<path d="M763.816 526.384L656.109 547.989" stroke="#2F2F33" stroke-width="3" stroke-miterlimit="10"/>
<path d="M847.453 695.396L678.168 844.349" stroke="#2F2F33" stroke-width="3" stroke-miterlimit="10"/>
<path d="M1510.48 897.546L1361.61 728.287" stroke="#2F2F33" stroke-width="3" stroke-miterlimit="10"/>
<path d="M1709.6 492.365L1484.63 477.973" stroke="#2F2F33" stroke-width="3" stroke-miterlimit="10"/>
<path d="M1004.4 799.94L932.186 1013.55" stroke="#2F2F33" stroke-width="3" stroke-miterlimit="10"/>
<path d="M1679.75 643.438L1466.19 571.281" stroke="#2F2F33" stroke-width="3" stroke-miterlimit="10"/>
<path d="M1363.14 -238.271C1416.52 -202.715 1516.27 -163.813 1522.08 -91.2433C1528.07 -16.3623 1529.89 59.3425 1531.21 134.351C1533.15 244.593 1535.24 366.111 1571.22 471.977C1594.12 539.378 1619.84 566.272 1588.43 632.07" stroke="#F8F8F8" stroke-width="3" stroke-linecap="round"/>
<path d="M904.219 193.409L493.477 193.409" stroke="#2F2F33" stroke-width="3" stroke-linecap="round"/>
<path d="M1093.19 430.812C1062.66 416.045 1157.94 179.783 1172.14 135.559" stroke="black" stroke-width="3" stroke-linecap="round"/>
</g>
<path d="M1040.96 985.276C1060.87 931.353 1088.15 881.706 1119.43 835.04" stroke="black" stroke-width="3" stroke-linecap="round"/>
<path d="M1207.28 669.673L1351.24 715.873" stroke="black" stroke-width="3" stroke-linecap="round"/>
<path d="M1387.35 579.776C1362.47 571.79 1336.71 571.341 1332.9 542.132" stroke="black" stroke-width="3" stroke-linecap="round"/>
<path d="M311.562 983.094C310.104 1011.71 389.679 1006.31 408.759 1005.36" stroke="black" stroke-width="3" stroke-linecap="round"/>
<path d="M330.673 206.877C330.673 322.53 319.843 442.857 337.406 557.018" stroke="#2F2F33" stroke-width="3" stroke-linecap="round"/>
<path d="M189.272 671.486C221.108 675.466 269.22 725.085 294.763 742.562C335.947 770.741 386.197 806.156 438.41 806.156" stroke="#2F2F33" stroke-width="3" stroke-linecap="round"/>
</g>
<defs>
<clipPath id="clip0_2422_10806">
<rect width="1205" height="1795" fill="white" transform="translate(1795) rotate(90)"/>
</clipPath>
<clipPath id="clip1_2422_10806">
<rect width="1141" height="1160" fill="white" transform="translate(1911.97 296.071) rotate(123.667)"/>
</clipPath>
</defs>
</svg>
