<svg width="1795" height="1205" viewBox="0 0 1795 1205" fill="none" xmlns="http://www.w3.org/2000/svg">
<g clip-path="url(#clip0_2422_10804)">
<path d="M574 901L574 1022" stroke="black" stroke-width="3" stroke-linecap="round"/>
<path d="M1545.98 546C1545.98 623.969 1585.17 729.116 1515.76 787.725C1440.28 851.465 1421.54 964.446 1358.65 1040.9C1264.35 1155.52 901.687 1213.46 845 1042.92" stroke="black" stroke-width="3" stroke-linecap="round"/>
<path d="M1100 389C875.681 463.586 722 781.48 722 1006" stroke="black" stroke-width="3" stroke-linecap="round"/>
<path d="M282.54 804C282.54 739.862 259.616 635.273 316.794 590.211C375.794 543.713 437.79 500.226 499.487 457.547C590.165 394.821 690.137 325.708 758.302 237.077C801.7 180.65 809.829 144.341 882 134" stroke="black" stroke-width="3" stroke-linecap="round"/>
<path d="M468 154.089C445.852 136.267 343.618 163.241 310.735 163.241C266.803 163.241 258.823 165.914 238 209" stroke="black" stroke-width="3" stroke-linecap="round"/>
<path d="M417.606 970C417.606 1024.58 404.4 1046.48 453.727 1069.4C478.475 1080.89 507.425 1094 535 1094" stroke="black" stroke-width="3" stroke-linecap="round"/>
<path d="M1217 756C1181.09 777.632 1118.67 763.697 1078.36 765.308C1042.15 766.755 1009.14 778.808 973.749 782.455C957.128 784.167 964.739 839.537 964.739 853" stroke="black" stroke-width="3" stroke-linecap="round"/>
<path d="M1125 56C1120.67 109.007 1094.13 160.211 1075 209" stroke="#020401" stroke-width="3" stroke-linecap="round"/>
<g clip-path="url(#clip1_2422_10804)">
<path d="M1497.49 845.793L1359.2 753.678" stroke="#F8F8F8" stroke-width="3" stroke-miterlimit="10"/>
<path d="M752.883 349.813L565.251 224.832" stroke="#F8F8F8" stroke-width="3" stroke-miterlimit="10"/>
<path d="M766.606 986.223L854.031 854.974" stroke="#F8F8F8" stroke-width="3" stroke-miterlimit="10"/>
<path d="M1570.27 448.576L1413.3 480.062" stroke="#F8F8F8" stroke-width="3" stroke-miterlimit="10"/>
<path d="M698.816 623.384L591.109 644.989" stroke="#F8F8F8" stroke-width="3" stroke-miterlimit="10"/>
<path d="M984.522 194.456L958.21 63.0452" stroke="#F8F8F8" stroke-width="3" stroke-miterlimit="10"/>
<path d="M782.453 792.396L613.168 941.349" stroke="#F8F8F8" stroke-width="3" stroke-miterlimit="10"/>
<path d="M1445.48 994.546L1296.61 825.287" stroke="#F8F8F8" stroke-width="3" stroke-miterlimit="10"/>
<path d="M815.508 278.16L666.63 108.9" stroke="#F8F8F8" stroke-width="3" stroke-miterlimit="10"/>
<path d="M1093.89 -36.9072L1079.42 188.094" stroke="#F8F8F8" stroke-width="3" stroke-miterlimit="10"/>
<path d="M1644.6 589.365L1419.63 574.973" stroke="#F8F8F8" stroke-width="3" stroke-miterlimit="10"/>
<path d="M939.403 896.94L867.186 1110.55" stroke="#F8F8F8" stroke-width="3" stroke-miterlimit="10"/>
<path d="M1614.75 740.438L1401.19 668.281" stroke="#F8F8F8" stroke-width="3" stroke-miterlimit="10"/>
<path d="M794.532 23.141L894.502 225.187" stroke="#F8F8F8" stroke-width="3" stroke-miterlimit="10"/>
<path d="M1298.14 -141.271C1351.52 -105.715 1451.27 -66.8125 1457.08 5.7567C1463.07 80.6377 1464.89 156.343 1466.21 231.351C1468.15 341.593 1470.24 463.111 1506.22 568.977C1529.12 636.378 1554.84 663.272 1523.43 729.07" stroke="#F8F8F8" stroke-width="3" stroke-linecap="round"/>
</g>
</g>
<defs>
<clipPath id="clip0_2422_10804">
<rect width="1205" height="1795" fill="white" transform="translate(1795) rotate(90)"/>
</clipPath>
<clipPath id="clip1_2422_10804">
<rect width="1141" height="1160" fill="white" transform="translate(1846.97 393.071) rotate(123.667)"/>
</clipPath>
</defs>
</svg>
