<svg width="1795" height="1205" viewBox="0 0 1795 1205" fill="none" xmlns="http://www.w3.org/2000/svg">
<g clip-path="url(#clip0_2422_10802)">
<g clip-path="url(#clip1_2422_10802)">
<path d="M1141.52 74.8828V241.044" stroke="#2F2F33" stroke-width="3" stroke-miterlimit="10"/>
<path d="M1141.52 969.554V1195" stroke="#2F2F33" stroke-width="3" stroke-miterlimit="10"/>
<path d="M1663.58 605.326H1505.88" stroke="#2F2F33" stroke-width="3" stroke-miterlimit="10"/>
<path d="M777.116 605.326H649.984" stroke="#2F2F33" stroke-width="3" stroke-miterlimit="10"/>
<path d="M770.594 234.522L883.815 347.704" stroke="#2F2F33" stroke-width="3" stroke-miterlimit="10"/>
<path d="M1399.19 862.894L1476.88 940.557" stroke="#2F2F33" stroke-width="3" stroke-miterlimit="10"/>
<path d="M883.814 862.894L789.031 957.642" stroke="#2F2F33" stroke-width="3" stroke-miterlimit="10"/>
<path d="M571.703 452.692L789.519 511.008" stroke="#2F2F33" stroke-width="3" stroke-miterlimit="10"/>
<path d="M1493.48 699.59L1711.3 757.905" stroke="#2F2F33" stroke-width="3" stroke-miterlimit="10"/>
<path d="M1294.16 35.7012L1235.82 253.44" stroke="#2F2F33" stroke-width="3" stroke-miterlimit="10"/>
<path d="M1047.18 957.157L988.844 1174.9" stroke="#2F2F33" stroke-width="3" stroke-miterlimit="10"/>
<path d="M630.633 900.136L825.912 787.439" stroke="#2F2F33" stroke-width="3" stroke-miterlimit="10"/>
<path d="M846.562 94.6084L959.298 289.819" stroke="#2F2F33" stroke-width="3" stroke-miterlimit="10"/>
<path d="M571.703 757.905L789.519 699.59" stroke="#2F2F33" stroke-width="3" stroke-miterlimit="10"/>
<path d="M1493.48 511.008L1711.3 452.692" stroke="#2F2F33" stroke-width="3" stroke-miterlimit="10"/>
<path d="M988.844 35.7002L1047.18 253.439" stroke="#2F2F33" stroke-width="3" stroke-miterlimit="10"/>
<path d="M846.562 1115.99L959.298 920.778" stroke="#2F2F33" stroke-width="3" stroke-miterlimit="10"/>
<path d="M630.633 310.462L825.912 423.158" stroke="#2F2F33" stroke-width="3" stroke-miterlimit="10"/>
<path d="M430.54 788C430.54 723.862 407.616 619.273 464.794 574.211C523.794 527.713 585.79 484.226 647.487 441.547C738.165 378.821 838.137 309.708 906.302 221.077C949.7 164.65 957.829 128.341 1030 118" stroke="#F8F8F8" stroke-width="3" stroke-linecap="round"/>
<path d="M958.385 577.123C1013.07 626.596 1094 669.687 1168.48 677.648C1231.52 684.386 1297.7 622.419 1352.55 597.601" stroke="#020401" stroke-width="3" stroke-linecap="round"/>
</g>
<path d="M201 839V886.875" stroke="black" stroke-width="3" stroke-linecap="round"/>
<path d="M258.891 158C284.333 180.911 322.888 180.454 354.587 184.114" stroke="black" stroke-width="3" stroke-linecap="round"/>
<path d="M201 384.838C233.463 384.838 265.926 384.838 298.388 384.838C303.653 384.838 323.253 387.922 326.179 380.969C332.345 366.318 329.812 339.913 331.496 323.905" stroke="black" stroke-width="3" stroke-linecap="round"/>
<path d="M574 901L574 1022" stroke="#F8F8F8" stroke-width="3" stroke-linecap="round"/>
<path d="M1545.98 546C1545.98 623.969 1585.17 729.116 1515.76 787.725C1440.28 851.465 1421.54 964.446 1358.65 1040.9C1264.35 1155.52 901.687 1213.46 845 1042.92" stroke="#F8F8F8" stroke-width="3" stroke-linecap="round"/>
<path d="M1100 389C875.681 463.586 722 781.48 722 1006" stroke="#F8F8F8" stroke-width="3" stroke-linecap="round"/>
<path d="M468 154.089C445.852 136.267 343.618 163.241 310.735 163.241C266.803 163.241 258.823 165.914 238 209" stroke="#F8F8F8" stroke-width="3" stroke-linecap="round"/>
<path d="M417.606 970C417.606 1024.58 404.4 1046.48 453.727 1069.4C478.475 1080.89 507.425 1094 535 1094" stroke="#F8F8F8" stroke-width="3" stroke-linecap="round"/>
<path d="M1213 171C1177.09 192.632 1114.67 178.697 1074.36 180.308C1038.15 181.755 1005.14 193.808 969.749 197.455C953.128 199.167 960.739 254.537 960.739 268" stroke="#F8F8F8" stroke-width="3" stroke-linecap="round"/>
<path d="M1125 56C1120.67 109.007 1094.13 160.211 1075 209" stroke="#F8F8F8" stroke-width="3" stroke-linecap="round"/>
<path d="M356.945 1077C356.945 1007.21 331.972 893.415 394.263 844.385C458.538 793.792 526.076 746.476 593.289 700.038C692.073 631.789 800.983 556.589 875.243 460.154C922.52 398.758 931.377 359.252 1010 348" stroke="black" stroke-width="3" stroke-linecap="round"/>
</g>
<defs>
<clipPath id="clip0_2422_10802">
<rect width="1205" height="1795" fill="white" transform="translate(1795) rotate(90)"/>
</clipPath>
<clipPath id="clip1_2422_10802">
<rect width="1141" height="1160" fill="white" transform="translate(571 35)"/>
</clipPath>
</defs>
</svg>
