<svg width="28" height="28" viewBox="0 0 28 28" fill="none" xmlns="http://www.w3.org/2000/svg">
<rect width="28" height="28" fill="#212121"/>
<path d="M28 5.60028V0L22.3989 0V5.60028H28Z" fill="#424242"/>
<path d="M22.3945 11.2004V5.6001H16.7934V11.2004H22.3945Z" fill="#424242"/>
<path d="M22.3945 22.4001V16.7998H16.7934V22.4001H22.3945Z" fill="#424242"/>
<path d="M28 28.0002V22.3999H22.3989V28.0002H28Z" fill="#424242"/>
<path d="M28 16.801V11.2007H22.3989V16.801H28Z" fill="#424242"/>
<path d="M16.8047 5.60028V0L11.2036 0V5.60028H16.8047Z" fill="#424242"/>
<path d="M11.1953 11.2004V5.6001H5.59418V11.2004H11.1953Z" fill="#424242"/>
<path d="M11.1953 22.4001V16.7998H5.59418V22.4001H11.1953Z" fill="#424242"/>
<path d="M16.8047 28.0002V22.3999H11.2036V28.0002H16.8047Z" fill="#424242"/>
<path d="M16.8047 16.801V11.2007H11.2036V16.801H16.8047Z" fill="#424242"/>
<path d="M5.60156 5.60028V0L0.000433445 0V5.60028H5.60156Z" fill="#424242"/>
<path d="M5.60156 28.0002V22.3999H0.000433445V28.0002H5.60156Z" fill="#424242"/>
<path d="M5.60156 16.801V11.2007H0.000432014V16.801H5.60156Z" fill="#424242"/>
</svg>
