<svg width="26" height="26" viewBox="0 0 26 26" fill="none" xmlns="http://www.w3.org/2000/svg">
<rect width="25.9964" height="26.0003" fill="#F8F8F8"/>
<path d="M25.9961 5.20032V0L20.7958 0V5.20032H25.9961Z" fill="#D9D9D9"/>
<path d="M20.793 10.4005V5.2002H15.5927V10.4005H20.793Z" fill="#D9D9D9"/>
<path d="M20.793 20.8004V15.6001H15.5926V20.8004H20.793Z" fill="#D9D9D9"/>
<path d="M25.9961 26.0001V20.7998H20.7958V26.0001H25.9961Z" fill="#D9D9D9"/>
<path d="M25.9961 15.6012V10.4009H20.7958V15.6012H25.9961Z" fill="#D9D9D9"/>
<path d="M15.6016 5.20032V0L10.4012 0V5.20032H15.6016Z" fill="#D9D9D9"/>
<path d="M10.3945 10.4005V5.2002H5.19421V10.4005H10.3945Z" fill="#D9D9D9"/>
<path d="M10.3945 20.8004V15.6001H5.19421V20.8004H10.3945Z" fill="#D9D9D9"/>
<path d="M15.6016 26.0001V20.7998H10.4012V26.0001H15.6016Z" fill="#D9D9D9"/>
<path d="M15.6016 15.6012V10.4009H10.4012V15.6012H15.6016Z" fill="#D9D9D9"/>
<path d="M5.19922 5.20032V0L-0.00110006 0V5.20032H5.19922Z" fill="#D9D9D9"/>
<path d="M5.19922 26.0001V20.7998H-0.00110006V26.0001H5.19922Z" fill="#D9D9D9"/>
<path d="M5.19922 15.6012V10.4009H-0.00110149V15.6012H5.19922Z" fill="#D9D9D9"/>
</svg>
